<?xml version="1.0" encoding="utf-8"?>
<!-- Generator: Adobe Illustrator 26.0.2, SVG Export Plug-In . SVG Version: 6.00 Build 0)  -->
<svg version="1.1" xmlns="http://www.w3.org/2000/svg" xmlns:xlink="http://www.w3.org/1999/xlink" x="0px" y="0px"
	 viewBox="0 0 64 64" style="enable-background:new 0 0 64 64;" xml:space="preserve">
<style type="text/css">
	.st0{display:none;}
	.st1{display:inline;fill:#D7DDDD;}
	.st2{fill:none;stroke:#FFFFFF;stroke-width:2;stroke-linecap:square;}
	.st3{fill:none;stroke:#FFFFFF;stroke-linecap:round;stroke-linejoin:round;stroke-miterlimit:8;}
</style>
<g id="Ebene_2" class="st0">
	<rect x="18.01" y="19.12" class="st1" width="27.96" height="27.96"/>
</g>
<g id="Ebene_1">
	<g>
		<path class="st2" d="M89.45,39.31l-4.18,2.2l1.18-6.88l-5-4.87l6.91-1l3.09-6.26l3.09,6.26l6.91,1l-3,2.92"/>
		<path class="st2" d="M102.45,42h-9 M102.45,37h-9"/>
	</g>
	<g transform="matrix(2,0,0,2,0,0)">
		<circle class="st3" cx="16" cy="18.16" r="0.54"/>
		<line class="st3" x1="16" y1="18.7" x2="16" y2="20.31"/>
		<path class="st3" d="M11.97,15.21h8.06c0.3,0,0.54,0.24,0.54,0.54v6.45c0,0.3-0.24,0.54-0.54,0.54h-8.06
			c-0.3,0-0.54-0.24-0.54-0.54v-6.45C11.43,15.45,11.67,15.21,11.97,15.21z"/>
		<path class="st3" d="M13.04,13.32c0-1.63,1.32-2.96,2.96-2.96s2.96,1.32,2.96,2.96v1.88h-5.91V13.32z"/>
	</g>
</g>
</svg>
