<?xml version="1.0" encoding="utf-8"?>
<!-- Generator: Adobe Illustrator 26.0.2, SVG Export Plug-In . SVG Version: 6.00 Build 0)  -->
<svg version="1.1" xmlns="http://www.w3.org/2000/svg" xmlns:xlink="http://www.w3.org/1999/xlink" x="0px" y="0px"
	 viewBox="0 0 64 64" style="enable-background:new 0 0 64 64;" xml:space="preserve">
<style type="text/css">
	.st0{display:none;}
	.st1{display:inline;fill:#E3EFE3;}
	.st2{fill:none;stroke:#FFFFFF;stroke-width:2;stroke-linecap:round;stroke-linejoin:round;stroke-miterlimit:8;}
</style>
<g id="Ebene_2" class="st0">
	<rect x="17.26" y="17.26" class="st1" width="29.48" height="29.48"/>
</g>
<g id="Ebene_1">
	<path class="st2" d="M27.29,32c0,2.6,2.11,4.71,4.71,4.71s4.71-2.11,4.71-4.71S34.6,27.29,32,27.29S27.29,29.4,27.29,32z"/>
	<path class="st2" d="M39.8,27.29c-0.44,0.92-0.05,2.02,0.87,2.46c0.06,0.03,0.12,0.05,0.18,0.07l1.25,0.44
		c0.96,0.34,1.46,1.4,1.12,2.36c-0.19,0.52-0.6,0.94-1.12,1.12l-1.25,0.44c-0.96,0.34-1.46,1.4-1.12,2.36
		c0.02,0.06,0.05,0.12,0.07,0.18l0.57,1.19c0.44,0.92,0.05,2.02-0.87,2.46c-0.5,0.24-1.09,0.24-1.59,0l-1.19-0.57
		c-0.92-0.44-2.02-0.05-2.46,0.87c-0.03,0.06-0.05,0.12-0.07,0.18l-0.44,1.25c-0.34,0.96-1.4,1.46-2.36,1.12
		c-0.52-0.19-0.94-0.6-1.12-1.12l-0.44-1.25c-0.34-0.96-1.4-1.46-2.36-1.12c-0.06,0.02-0.12,0.05-0.18,0.07l-1.19,0.57
		c-0.92,0.44-2.02,0.05-2.46-0.87c-0.24-0.5-0.24-1.09,0-1.59l0.57-1.19c0.44-0.92,0.05-2.02-0.87-2.46
		c-0.06-0.03-0.12-0.05-0.18-0.07l-1.25-0.44c-0.96-0.34-1.46-1.4-1.12-2.36c0.19-0.52,0.6-0.94,1.12-1.12l1.25-0.44
		c0.96-0.34,1.46-1.4,1.12-2.36c-0.02-0.06-0.04-0.12-0.07-0.17l-0.57-1.19c-0.44-0.92-0.05-2.02,0.87-2.46
		c0.5-0.24,1.09-0.24,1.59,0l1.19,0.57c0.92,0.44,2.02,0.05,2.46-0.87c0.03-0.06,0.05-0.11,0.07-0.17l0.44-1.25
		c0.34-0.96,1.4-1.46,2.36-1.12c0.52,0.19,0.94,0.6,1.12,1.12l0.44,1.25c0.34,0.96,1.4,1.46,2.36,1.12
		c0.06-0.02,0.12-0.05,0.18-0.07l1.19-0.57c0.92-0.44,2.02-0.05,2.46,0.87c0.24,0.5,0.24,1.09,0,1.59L39.8,27.29z"/>
</g>
</svg>
