<?xml version="1.0" encoding="utf-8"?>
<!-- Generator: Adobe Illustrator 26.0.2, SVG Export Plug-In . SVG Version: 6.00 Build 0)  -->
<svg version="1.1" id="Ebene_1" xmlns="http://www.w3.org/2000/svg" xmlns:xlink="http://www.w3.org/1999/xlink" x="0px" y="0px"
	 viewBox="0 0 71.25 69.45" style="enable-background:new 0 0 71.25 69.45;" xml:space="preserve">
<style type="text/css">
	.st0{fill:url(#SVGID_1_);}
</style>
<linearGradient id="SVGID_1_" gradientUnits="userSpaceOnUse" x1="0" y1="34.7236" x2="71.2523" y2="34.7236">
	<stop  offset="0" style="stop-color:#47B9EB"/>
	<stop  offset="1" style="stop-color:#267DF3"/>
</linearGradient>
<path class="st0" d="M35.63,0C15.95,0,0,15.95,0,35.63C0,51.2,10.01,64.4,23.93,69.25l3.79-19.98c-4.7-2.74-7.87-7.82-7.87-13.64
	c0-8.7,7.08-15.78,15.78-15.78c8.7,0,15.78,7.08,15.78,15.78c0,6.04-3.41,11.29-8.4,13.94l3.77,19.88
	c14.21-4.68,24.48-18.04,24.48-33.82C71.25,15.95,55.3,0,35.63,0z"/>
</svg>
