<?xml version="1.0" encoding="utf-8"?>
<!-- Generator: Adobe Illustrator 26.0.2, SVG Export Plug-In . SVG Version: 6.00 Build 0)  -->
<svg version="1.1" xmlns="http://www.w3.org/2000/svg" xmlns:xlink="http://www.w3.org/1999/xlink" x="0px" y="0px"
	 viewBox="0 0 64 64" style="enable-background:new 0 0 64 64;" xml:space="preserve">
<style type="text/css">
	.st0{display:none;}
	.st1{display:inline;fill:#D7DDDD;}
	.st2{fill:none;stroke:#FFFFFF;stroke-linecap:round;stroke-linejoin:round;stroke-miterlimit:8;}
</style>
<g id="Ebene_2" class="st0">
	<rect x="18.01" y="19.12" class="st1" width="27.96" height="27.96"/>
</g>
<g id="Ebene_1">
	<g transform="matrix(2,0,0,2,0,0)">
		<path class="st2" d="M10.21,21.48h11.57"/>
		<path class="st2" d="M18.52,21.48v-9.34c0-0.29,0.23-0.52,0.52-0.52h1.04c0.29,0,0.52,0.23,0.52,0.52v9.34"/>
		<path class="st2" d="M14.89,21.48v-6.23c0-0.29,0.23-0.52,0.52-0.52h1.04c0.29,0,0.52,0.23,0.52,0.52v6.23"/>
		<path class="st2" d="M11.25,21.48v-6.23c0-0.29,0.23-0.52,0.52-0.52h1.04c0.29,0,0.52,0.23,0.52,0.52v6.23"/>
	</g>
</g>
</svg>
